<svg width="18" height="18" viewBox="0 0 18 18" fill="none" xmlns="http://www.w3.org/2000/svg">
<path d="M8.6806 0.530273C6.37144 0.530273 6.08314 0.540898 5.17648 0.581273C4.27123 0.623773 3.65498 0.766148 3.1131 0.976523C2.55423 1.19327 2.07964 1.4844 1.60719 1.95686C1.13473 2.42931 0.842895 2.90319 0.626853 3.46277C0.416478 4.00465 0.273395 4.6209 0.231603 5.52615C0.189103 6.43282 0.180603 6.72111 0.180603 9.03027C0.180603 11.3394 0.191228 11.6277 0.231603 12.5344C0.274103 13.4389 0.416478 14.0559 0.626853 14.5978C0.843603 15.1559 1.13473 15.6312 1.60719 16.1037C2.07964 16.5754 2.55352 16.868 3.1131 17.084C3.65569 17.2937 4.27194 17.4375 5.17648 17.4793C6.08314 17.5218 6.37144 17.5303 8.6806 17.5303C10.9898 17.5303 11.2781 17.5196 12.1847 17.4793C13.0893 17.4368 13.7062 17.2937 14.2481 17.084C14.8063 16.8673 15.2816 16.5754 15.754 16.1037C16.2258 15.6312 16.5183 15.1581 16.7344 14.5978C16.944 14.0559 17.0878 13.4389 17.1296 12.5344C17.1721 11.6277 17.1806 11.3394 17.1806 9.03027C17.1806 6.72111 17.17 6.43282 17.1296 5.52615C17.0871 4.62161 16.944 4.00394 16.7344 3.46277C16.5176 2.9039 16.2258 2.42931 15.754 1.95686C15.2816 1.4844 14.8084 1.19257 14.2481 0.976523C13.7062 0.766148 13.0893 0.623065 12.1847 0.581273C11.2781 0.538773 10.9898 0.530273 8.6806 0.530273ZM8.6806 2.06027C10.9494 2.06027 11.22 2.07161 12.116 2.11057C12.9448 2.14952 13.3946 2.28694 13.6935 2.40452C14.0916 2.55823 14.3735 2.7424 14.6724 3.03919C14.9692 3.33669 15.1534 3.61931 15.3071 4.0174C15.4232 4.31631 15.5621 4.76611 15.5996 5.59486C15.64 6.49161 15.6492 6.76077 15.6492 9.03027C15.6492 11.2998 15.6386 11.5696 15.5968 12.4657C15.5536 13.2944 15.4154 13.7442 15.2986 14.0431C15.1399 14.4412 14.9593 14.7231 14.6618 15.0221C14.365 15.3189 14.0781 15.503 13.6843 15.6567C13.3868 15.7729 12.9299 15.9117 12.1011 15.9493C11.1987 15.9896 10.9331 15.9989 8.65935 15.9989C6.38489 15.9989 6.11927 15.9882 5.21756 15.9464C4.3881 15.9032 3.93123 15.7651 3.63373 15.6482C3.23069 15.4896 2.95373 15.3089 2.65694 15.0114C2.35873 14.7146 2.16819 14.4278 2.01944 14.0339C1.90256 13.7364 1.76514 13.2796 1.72194 12.4508C1.69006 11.5583 1.67873 11.2828 1.67873 9.01965C1.67873 6.75581 1.69006 6.47957 1.72194 5.57644C1.76514 4.74769 1.90256 4.29152 2.01944 3.99402C2.16819 3.59027 2.35873 3.31402 2.65694 3.01582C2.95373 2.71902 3.23069 2.52777 3.63373 2.37973C3.93123 2.26215 4.37819 2.12402 5.20694 2.08152C6.11006 2.04965 6.37569 2.03902 8.64873 2.03902L8.6806 2.06027ZM8.6806 4.66552C6.26873 4.66552 4.31585 6.62052 4.31585 9.03027C4.31585 11.4421 6.27085 13.395 8.6806 13.395C11.0925 13.395 13.0454 11.44 13.0454 9.03027C13.0454 6.6184 11.0904 4.66552 8.6806 4.66552ZM8.6806 11.8636C7.11519 11.8636 5.84727 10.5957 5.84727 9.03027C5.84727 7.46486 7.11519 6.19694 8.6806 6.19694C10.246 6.19694 11.5139 7.46486 11.5139 9.03027C11.5139 10.5957 10.246 11.8636 8.6806 11.8636ZM14.2382 4.4934C14.2382 5.05652 13.7806 5.5134 13.2182 5.5134C12.6551 5.5134 12.1982 5.05581 12.1982 4.4934C12.1982 3.93098 12.6558 3.47411 13.2182 3.47411C13.7799 3.4734 14.2382 3.93098 14.2382 4.4934Z" fill="#5E5E5E"/>
</svg>
