<svg width="18" height="18" viewBox="0 0 18 18" fill="none" xmlns="http://www.w3.org/2000/svg">
<path d="M15.2013 15.162H12.6229V11.1218C12.6229 10.1583 12.6033 8.91842 11.2793 8.91842C9.93495 8.91842 9.72963 9.96676 9.72963 11.0507V15.162H7.15122V6.85367H9.62806V7.98617H9.66144C10.0075 7.33322 10.8491 6.644 12.1064 6.644C14.7189 6.644 15.202 8.36342 15.202 10.6016L15.2013 15.162ZM4.23909 5.71682C3.40912 5.71682 2.74239 5.04501 2.74239 4.21867C2.74239 3.39306 3.40985 2.72198 4.23909 2.72198C5.06615 2.72198 5.73651 3.39306 5.73651 4.21867C5.73651 5.04501 5.06543 5.71682 4.23909 5.71682ZM5.53192 15.162H2.94626V6.85367H5.53192V15.162ZM16.4912 0.324219H1.65198C0.941718 0.324219 0.367126 0.885751 0.367126 1.5786V16.4817C0.367126 17.1753 0.941718 17.7361 1.65198 17.7361H16.4891C17.1986 17.7361 17.779 17.1753 17.779 16.4817V1.5786C17.779 0.885751 17.1986 0.324219 16.4891 0.324219H16.4912Z" fill="#5E5E5E"/>
</svg>
