<svg width="19" height="16" viewBox="0 0 19 16" fill="none" xmlns="http://www.w3.org/2000/svg">
<path d="M18.0226 2.66657C17.3837 2.94736 16.7016 3.13864 15.9834 3.22599C16.7153 2.78495 17.2783 2.08982 17.5447 1.26043C16.8582 1.66105 16.0974 1.95267 15.2875 2.11508C14.6408 1.42285 13.719 0.989746 12.6954 0.989746C10.7342 0.989746 9.144 2.57995 9.144 4.539C9.144 4.82052 9.17648 5.0912 9.23567 5.35034C6.28337 5.21103 3.66673 3.79335 1.91556 1.65022C1.60733 2.17139 1.43482 2.77701 1.43482 3.43676C1.43482 4.6711 2.06281 5.75601 3.01419 6.39339C2.43167 6.37463 1.8838 6.21438 1.40594 5.94874V5.99278C1.40594 7.71435 2.62801 9.15008 4.2543 9.47707C3.95618 9.55719 3.64146 9.6005 3.3188 9.6005C3.09215 9.6005 2.87487 9.57885 2.6576 9.53842C3.11308 10.9482 4.42249 11.9761 5.98093 12.0049C4.76824 12.957 3.23146 13.5244 1.5763 13.5244C1.29478 13.5244 1.01399 13.5078 0.73175 13.476C2.31184 14.4823 4.17345 15.0706 6.18665 15.0706C12.7221 15.0706 16.2916 9.65969 16.2916 4.97499C16.2916 4.82413 16.2916 4.67182 16.2808 4.52023C16.9745 4.02289 17.5801 3.39417 18.0565 2.681L18.0226 2.66657Z" fill="#5E5E5E"/>
</svg>
